<svg width="126" height="127" viewBox="0 0 126 127" xmlns="http://www.w3.org/2000/svg">
    <path d="M89.6704 35.2768C89.9034 35.8206 90.0159 36.4084 90 36.9998V54.9998H81V45.9998H54C51.6152 45.9927 49.3302 45.0422 47.6439 43.3559C45.9576 41.6696 45.0071 39.3846 45 36.9998V9.99982H9V118H81V127H9C6.61305 127 4.32387 126.052 2.63604 124.364C0.948211 122.676 0 120.387 0 118V9.99982C0.00712227 7.61506 0.957621 5.33001 2.64391 3.64373C4.33019 1.95744 6.61524 1.00694 9 0.999821H54C54.5914 0.98364 55.1794 1.09596 55.7232 1.32903C56.267 1.5621 56.7538 1.91037 57.15 2.34982L88.65 33.8498C89.0892 34.2462 89.4373 34.733 89.6704 35.2768ZM54 11.7998V36.9998H79.2L54 11.7998ZM126 63.9999V72.9999H108V81.9999H121.5V90.9999H108V109H99V63.9999H126ZM58.5 109H76.5C80.0793 108.996 83.511 107.573 86.042 105.042C88.573 102.511 89.9964 99.0793 90 95.4999V77.4999C89.9964 73.9206 88.573 70.4889 86.042 67.9579C83.511 65.427 80.0793 64.0035 76.5 63.9999H58.5V109ZM76.5 99.9999H67.5V72.9999H76.5C77.6931 73.0011 78.837 73.4756 79.6807 74.3193C80.5243 75.1629 80.9988 76.3068 81 77.4999V95.4999C80.9988 96.693 80.5243 97.8369 79.6807 98.6806C78.837 99.5243 77.6931 99.9987 76.5 99.9999ZM18 63.9999H40.5C42.8862 64.0023 45.174 64.9513 46.8613 66.6386C48.5486 68.3259 49.4976 70.6137 49.5 72.9999V86.4999C49.4964 88.8858 48.5471 91.1729 46.86 92.86C45.173 94.547 42.8859 95.4964 40.5 95.4999H27V109H18V63.9999ZM27 72.9999V86.4999H40.5045L40.5 72.9999H27Z" fill="#A5A39C"/>
</svg>
