<svg width="100" height="25" viewBox="0 0 100 25" fill="none" xmlns="http://www.w3.org/2000/svg">
<g clip-path="url(#clip0_1821_1375)">
<path d="M18.0402 6.3746C18.0402 2.69559 14.3303 0.124039 9.02009 0.124039C3.70987 0.124039 -0.00219727 2.69559 -0.00219727 6.3746C-0.00219727 9.79225 3.19412 12.2486 7.90006 12.5764V13.943H3.49074C3.20259 13.9559 2.93048 14.0794 2.73111 14.288C2.53174 14.4966 2.42047 14.7741 2.42047 15.0627C2.42047 15.3513 2.53174 15.6288 2.73111 15.8374C2.93048 16.0459 3.20259 16.1695 3.49074 16.1823H7.90227V17.8812H3.49074C3.19427 17.8812 2.90994 17.999 2.70031 18.2088C2.49067 18.4186 2.3729 18.7031 2.3729 18.9997C2.3729 19.2964 2.49067 19.5809 2.70031 19.7907C2.90994 20.0004 3.19427 20.1183 3.49074 20.1183H14.5583C14.8548 20.1183 15.1391 20.0004 15.3487 19.7907C15.5584 19.5809 15.6761 19.2964 15.6761 18.9997C15.6761 18.7031 15.5584 18.4186 15.3487 18.2088C15.1391 17.999 14.8548 17.8812 14.5583 17.8812H10.1401V16.1801H14.5517C14.8398 16.1673 15.1119 16.0437 15.3113 15.8352C15.5107 15.6266 15.6219 15.3491 15.6219 15.0605C15.6219 14.7718 15.5107 14.4944 15.3113 14.2858C15.1119 14.0772 14.8398 13.9536 14.5517 13.9408H10.1401V12.5853C14.8461 12.2486 18.0402 9.79225 18.0402 6.3746ZM15.8023 6.3746C15.8023 8.47436 13.4803 10.0514 10.1379 10.3393V2.40986C13.4825 2.70001 15.8045 4.27705 15.8045 6.3746H15.8023ZM2.23566 6.3746C2.23566 4.27705 4.55765 2.70001 7.90006 2.40986V10.3393C4.55986 10.0514 2.23788 8.47436 2.23788 6.3746H2.23566Z" fill="#F9B471"/>
<path d="M26.9761 11.2253C27.2642 11.2125 27.5363 11.0889 27.7357 10.8803C27.935 10.6718 28.0463 10.3943 28.0463 10.1056C28.0463 9.81703 27.935 9.53953 27.7357 9.33096C27.5363 9.12239 27.2642 8.99882 26.9761 8.986H22.4671V4.99911C22.4543 4.71077 22.3308 4.43851 22.1224 4.23901C21.914 4.03951 21.6366 3.92816 21.3482 3.92816C21.0598 3.92816 20.7825 4.03951 20.574 4.23901C20.3656 4.43851 20.2421 4.71077 20.2293 4.99911V14.2155C18.955 14.7722 17.9322 15.782 17.3589 17.0496C16.7856 18.3171 16.7024 19.7524 17.1255 21.0778C17.5486 22.4032 18.4478 23.5245 19.6493 24.2249C20.8508 24.9252 22.2691 25.1548 23.63 24.8692C24.9909 24.5837 26.1976 23.8033 27.0167 22.679C27.8358 21.5547 28.2091 20.1663 28.0645 18.7825C27.9198 17.3987 27.2674 16.1178 26.2335 15.1874C25.1996 14.2571 23.8576 13.7434 22.4671 13.7459V11.2253H26.9761ZM25.8693 19.3741C25.8693 20.0443 25.6707 20.6995 25.2986 21.2568C24.9264 21.8141 24.3975 22.2484 23.7787 22.5049C23.1598 22.7614 22.4789 22.8285 21.8219 22.6978C21.165 22.567 20.5615 22.2443 20.0879 21.7703C19.6143 21.2964 19.2917 20.6926 19.161 20.0352C19.0303 19.3778 19.0974 18.6964 19.3537 18.0772C19.6101 17.458 20.0442 16.9287 20.6011 16.5563C21.158 16.184 21.8128 15.9852 22.4826 15.9852C23.3787 15.9887 24.237 16.3472 24.8696 16.9823C25.5022 17.6174 25.8577 18.4774 25.8582 19.3741H25.8693Z" fill="#F9B471"/>
<path d="M5.58921 4.99689C5.3169 4.99689 5.05071 5.07769 4.8243 5.22907C4.59788 5.38046 4.42141 5.59562 4.3172 5.84736C4.213 6.0991 4.18573 6.37611 4.23886 6.64335C4.29198 6.9106 4.42311 7.15608 4.61566 7.34876C4.80821 7.54143 5.05353 7.67264 5.32061 7.7258C5.58768 7.77896 5.86451 7.75168 6.11609 7.6474C6.36767 7.54313 6.5827 7.36655 6.73398 7.13999C6.88527 6.91343 6.96601 6.64707 6.96601 6.37459C6.96542 6.00938 6.82018 5.6593 6.5621 5.40106C6.30403 5.14281 5.95418 4.99747 5.58921 4.99689Z" fill="#F9B471"/>
<path d="M12.4532 7.75227C13.2136 7.75227 13.83 7.13546 13.83 6.37458C13.83 5.6137 13.2136 4.99689 12.4532 4.99689C11.6928 4.99689 11.0764 5.6137 11.0764 6.37458C11.0764 7.13546 11.6928 7.75227 12.4532 7.75227Z" fill="#F9B471"/>
<path d="M2.49473 21.6266C2.22243 21.6266 1.95623 21.7075 1.72981 21.8588C1.5034 22.0102 1.32694 22.2254 1.22273 22.4771C1.11852 22.7289 1.09125 23.0059 1.14437 23.2731C1.1975 23.5404 1.32864 23.7858 1.52119 23.9785C1.71374 24.1712 1.95905 24.3024 2.22612 24.3556C2.4932 24.4087 2.77003 24.3814 3.02161 24.2772C3.27318 24.1729 3.48821 23.9963 3.6395 23.7697C3.79078 23.5432 3.87153 23.2768 3.87153 23.0043C3.87095 22.6391 3.72571 22.289 3.46763 22.0308C3.20956 21.7726 2.85971 21.6272 2.49473 21.6266Z" fill="#F9B471"/>
<path d="M6.08286 24.382C6.84325 24.382 7.45967 23.7652 7.45967 23.0043C7.45967 22.2435 6.84325 21.6266 6.08286 21.6266C5.32247 21.6266 4.70605 22.2435 4.70605 23.0043C4.70605 23.7652 5.32247 24.382 6.08286 24.382Z" fill="#F9B471"/>
<path d="M9.67075 24.382C10.4311 24.382 11.0476 23.7652 11.0476 23.0043C11.0476 22.2435 10.4311 21.6266 9.67075 21.6266C8.91036 21.6266 8.29395 22.2435 8.29395 23.0043C8.29395 23.7652 8.91036 24.382 9.67075 24.382Z" fill="#F9B471"/>
<path d="M13.2567 24.382C14.0171 24.382 14.6335 23.7652 14.6335 23.0043C14.6335 22.2435 14.0171 21.6266 13.2567 21.6266C12.4963 21.6266 11.8799 22.2435 11.8799 23.0043C11.8799 23.7652 12.4963 24.382 13.2567 24.382Z" fill="#F9B471"/>
<path d="M47.3161 6.3746C47.3161 2.69559 43.6062 0.124039 38.2938 0.124039C32.9813 0.124039 29.2737 2.69559 29.2737 6.3746C29.2737 9.79225 32.47 12.2486 37.1759 12.5764V13.943H32.7644C32.6133 13.9363 32.4624 13.9603 32.3207 14.0135C32.1791 14.0668 32.0497 14.1481 31.9404 14.2528C31.8311 14.3574 31.7441 14.4831 31.6847 14.6223C31.6252 14.7615 31.5946 14.9113 31.5946 15.0627C31.5946 15.2141 31.6252 15.3639 31.6847 15.5031C31.7441 15.6423 31.8311 15.768 31.9404 15.8726C32.0497 15.9772 32.1791 16.0586 32.3207 16.1119C32.4624 16.1651 32.6133 16.1891 32.7644 16.1823H37.1759V17.8812H32.7644C32.4679 17.8812 32.1836 17.999 31.974 18.2088C31.7643 18.4186 31.6466 18.7031 31.6466 18.9997C31.6466 19.2964 31.7643 19.5809 31.974 19.7907C32.1836 20.0004 32.4679 20.1183 32.7644 20.1183H43.832C44.1284 20.1183 44.4128 20.0004 44.6224 19.7907C44.832 19.5809 44.9498 19.2964 44.9498 18.9997C44.9498 18.7031 44.832 18.4186 44.6224 18.2088C44.4128 17.999 44.1284 17.8812 43.832 17.8812H39.4116V16.1801H43.8231C43.9742 16.1868 44.1252 16.1629 44.2668 16.1096C44.4084 16.0564 44.5378 15.975 44.6471 15.8704C44.7564 15.7658 44.8434 15.64 44.9029 15.5008C44.9623 15.3616 44.9929 15.2118 44.9929 15.0605C44.9929 14.9091 44.9623 14.7593 44.9029 14.6201C44.8434 14.4809 44.7564 14.3552 44.6471 14.2506C44.5378 14.1459 44.4084 14.0645 44.2668 14.0113C44.1252 13.9581 43.9742 13.9341 43.8231 13.9408H39.4116V12.5853C44.1175 12.2486 47.3161 9.79225 47.3161 6.3746ZM45.0782 6.3746C45.0782 8.47436 42.754 10.0514 39.4116 10.3393V2.40986C42.754 2.70001 45.0782 4.27705 45.0782 6.3746ZM31.5093 6.3746C31.5093 4.27705 33.8335 2.70001 37.1759 2.40986V10.3393C33.8335 10.0514 31.5093 8.47436 31.5093 6.3746Z" fill="#F9B471"/>
<path d="M56.2499 11.2253C56.5381 11.2125 56.8102 11.0889 57.0095 10.8804C57.2089 10.6718 57.3202 10.3943 57.3202 10.1057C57.3202 9.81704 57.2089 9.53955 57.0095 9.33098C56.8102 9.1224 56.5381 8.99884 56.2499 8.98601H51.7432V4.99913C51.7432 4.70247 51.6254 4.41796 51.4158 4.2082C51.2062 3.99843 50.9218 3.88058 50.6254 3.88058C50.3289 3.88058 50.0446 3.99843 49.835 4.2082C49.6253 4.41796 49.5075 4.70247 49.5075 4.99913V14.2155C48.2326 14.771 47.2088 15.7799 46.6342 17.047C46.0597 18.3142 45.9753 19.7495 46.3972 21.0754C46.8192 22.4013 47.7175 23.5234 48.9186 24.2248C50.1196 24.9262 51.5379 25.1569 52.8991 24.8724C54.2603 24.5878 55.4676 23.8082 56.2876 22.6844C57.1075 21.5605 57.4818 20.1723 57.338 18.7883C57.1942 17.4043 56.5425 16.1228 55.5091 15.1918C54.4756 14.2608 53.1338 13.7464 51.7432 13.7481V11.2253H56.2499ZM55.1299 19.3741C55.1299 20.0443 54.9313 20.6995 54.5591 21.2568C54.187 21.8141 53.6581 22.2485 53.0392 22.505C52.4204 22.7615 51.7395 22.8286 51.0825 22.6978C50.4255 22.567 49.8221 22.2443 49.3485 21.7704C48.8748 21.2964 48.5523 20.6926 48.4216 20.0352C48.2909 19.3778 48.358 18.6964 48.6143 18.0772C48.8706 17.458 49.3047 16.9287 49.8617 16.5563C50.4186 16.184 51.0734 15.9852 51.7432 15.9852C52.6412 15.9858 53.5023 16.343 54.1373 16.9784C54.7723 17.6138 55.1293 18.4755 55.1299 19.3741Z" fill="#F9B471"/>
<path d="M34.8629 4.99689C34.5906 4.99689 34.3244 5.07769 34.098 5.22907C33.8716 5.38046 33.6951 5.59562 33.5909 5.84736C33.4867 6.0991 33.4594 6.37611 33.5125 6.64335C33.5657 6.9106 33.6968 7.15608 33.8893 7.34876C34.0819 7.54143 34.3272 7.67264 34.5943 7.7258C34.8614 7.77896 35.1382 7.75168 35.3898 7.6474C35.6414 7.54313 35.8564 7.36655 36.0077 7.13999C36.1589 6.91343 36.2397 6.64707 36.2397 6.37459C36.2397 6.0092 36.0946 5.65877 35.8364 5.40041C35.5782 5.14204 35.228 4.99689 34.8629 4.99689Z" fill="#F9B471"/>
<path d="M41.7247 7.75228C41.997 7.75228 42.2632 7.67149 42.4896 7.52011C42.716 7.36873 42.8925 7.15355 42.9967 6.90181C43.1009 6.65007 43.1282 6.37307 43.075 6.10582C43.0219 5.83858 42.8908 5.59309 42.6982 5.40042C42.5057 5.20774 42.2604 5.07653 41.9933 5.02338C41.7262 4.97022 41.4494 4.9975 41.1978 5.10177C40.9462 5.20605 40.7312 5.38263 40.5799 5.60919C40.4286 5.83575 40.3479 6.10212 40.3479 6.3746C40.3476 6.5556 40.383 6.73488 40.4521 6.90216C40.5212 7.06944 40.6226 7.22143 40.7505 7.34942C40.8784 7.47741 41.0303 7.57888 41.1975 7.64801C41.3647 7.71714 41.5438 7.75257 41.7247 7.75228Z" fill="#F9B471"/>
<path d="M31.764 21.6266C31.4917 21.6266 31.2255 21.7075 30.9991 21.8588C30.7727 22.0102 30.5962 22.2254 30.492 22.4771C30.3878 22.7289 30.3605 23.0059 30.4137 23.2731C30.4668 23.5404 30.5979 23.7858 30.7905 23.9785C30.983 24.1712 31.2283 24.3024 31.4954 24.3556C31.7625 24.4087 32.0393 24.3814 32.2909 24.2772C32.5425 24.1729 32.7575 23.9963 32.9088 23.7697C33.0601 23.5432 33.1408 23.2768 33.1408 23.0043C33.1408 22.6389 32.9958 22.2885 32.7376 22.0302C32.4794 21.7718 32.1292 21.6266 31.764 21.6266Z" fill="#F9B471"/>
<path d="M35.3565 24.382C36.1169 24.382 36.7334 23.7652 36.7334 23.0043C36.7334 22.2435 36.1169 21.6266 35.3565 21.6266C34.5962 21.6266 33.9797 22.2435 33.9797 23.0043C33.9797 23.7652 34.5962 24.382 35.3565 24.382Z" fill="#F9B471"/>
<path d="M38.9425 24.382C39.7029 24.382 40.3193 23.7652 40.3193 23.0043C40.3193 22.2435 39.7029 21.6266 38.9425 21.6266C38.1821 21.6266 37.5657 22.2435 37.5657 23.0043C37.5657 23.7652 38.1821 24.382 38.9425 24.382Z" fill="#F9B471"/>
<path d="M42.5304 24.382C43.2908 24.382 43.9072 23.7652 43.9072 23.0043C43.9072 22.2435 43.2908 21.6266 42.5304 21.6266C41.77 21.6266 41.1536 22.2435 41.1536 23.0043C41.1536 23.7652 41.77 24.382 42.5304 24.382Z" fill="#F9B471"/>
<path d="M61.8213 5.88953C61.9505 5.96041 62.0927 6.00474 62.2393 6.01992C62.3859 6.03509 62.5341 6.0208 62.6752 5.97789C62.8162 5.93497 62.9472 5.86429 63.0606 5.77001C63.174 5.67572 63.2674 5.55972 63.3353 5.42882L64.2207 3.77426H70.8613C71.1577 3.77426 71.4421 3.65641 71.6517 3.44665C71.8613 3.23688 71.9791 2.95237 71.9791 2.65572C71.9791 2.35906 71.8613 2.07455 71.6517 1.86479C71.4421 1.65502 71.1577 1.53717 70.8613 1.53717H65.4094C65.4713 1.40453 65.5065 1.26099 65.513 1.11474C65.5195 0.968494 65.4971 0.822399 65.4471 0.684802C65.3972 0.547204 65.3207 0.420799 65.2219 0.312802C65.1231 0.204805 65.004 0.11733 64.8715 0.055375C64.6038 -0.0697493 64.2974 -0.0833345 64.0197 0.0176031C63.742 0.118541 63.5157 0.325738 63.3907 0.59361L61.3697 4.3745C61.2296 4.63548 61.1984 4.94136 61.283 5.22526C61.3677 5.50916 61.5612 5.74799 61.8213 5.88953Z" fill="#F9B471"/>
<path d="M76.8289 5.73005C76.8284 6.00316 76.909 6.27025 77.0603 6.49751C77.2117 6.72477 77.4271 6.90198 77.6791 7.0067C77.9312 7.11142 78.2087 7.13893 78.4764 7.08576C78.7441 7.03259 78.99 6.90112 79.183 6.708C79.376 6.51488 79.5074 6.2688 79.5605 6.00092C79.6137 5.73304 79.5862 5.45541 79.4815 5.20317C79.3769 4.95093 79.1998 4.73545 78.9726 4.58399C78.7455 4.43253 78.4786 4.35192 78.2057 4.35236C77.8405 4.35236 77.4903 4.4975 77.2321 4.75587C76.9739 5.01424 76.8289 5.36466 76.8289 5.73005Z" fill="#F9B471"/>
<path d="M73.0216 5.88953C73.1508 5.96041 73.293 6.00474 73.4396 6.01992C73.5862 6.03509 73.7344 6.0208 73.8754 5.97789C74.0165 5.93497 74.1475 5.86429 74.2609 5.77001C74.3742 5.67572 74.4677 5.55972 74.5356 5.42882L75.421 3.77426H82.0616C82.358 3.77426 82.6424 3.65641 82.852 3.44665C83.0616 3.23688 83.1794 2.95237 83.1794 2.65572C83.1794 2.35906 83.0616 2.07455 82.852 1.86479C82.6424 1.65502 82.358 1.53717 82.0616 1.53717H76.5964C76.7214 1.2693 76.735 0.962692 76.6341 0.684802C76.5333 0.406912 76.3262 0.180499 76.0585 0.055375C75.7908 -0.0697493 75.4844 -0.0833345 75.2067 0.0176031C74.929 0.118541 74.7027 0.325738 74.5777 0.59361L72.5589 4.3745C72.4897 4.50433 72.4467 4.64655 72.4325 4.79303C72.4183 4.9395 72.433 5.08735 72.476 5.22809C72.519 5.36883 72.5893 5.4997 72.6829 5.6132C72.7765 5.7267 72.8916 5.82061 73.0216 5.88953Z" fill="#F9B471"/>
<path d="M68.2769 6.25745C68.5679 5.5545 68.2343 4.74857 67.5318 4.4574C66.8293 4.16622 66.0239 4.50006 65.7329 5.20302C65.4419 5.90597 65.7756 6.71187 66.4781 7.00305C67.1806 7.29423 67.986 6.96041 68.2769 6.25745Z" fill="#F9B471"/>
<path d="M84.0161 9.90963L72.5058 6.78657C72.3147 6.73341 72.1126 6.73341 71.9215 6.78657L60.4112 9.90963C60.2638 9.94284 60.1246 10.0056 60.002 10.094C59.8794 10.1825 59.776 10.2948 59.698 10.4243C59.62 10.5538 59.5689 10.6978 59.5479 10.8475C59.527 10.9973 59.5365 11.1497 59.576 11.2957C59.6154 11.4416 59.684 11.5781 59.7775 11.6969C59.8711 11.8156 59.9877 11.9142 60.1203 11.9867C60.2529 12.0591 60.3989 12.104 60.5493 12.1186C60.6997 12.1331 60.8515 12.1171 60.9956 12.0714L72.2203 9.02587L83.445 12.0714C83.5405 12.0958 83.6387 12.1084 83.7372 12.1091C84.009 12.1102 84.2718 12.0122 84.4766 11.8335C84.6814 11.6547 84.8141 11.4075 84.8499 11.1379C84.8857 10.8684 84.8222 10.595 84.6712 10.3689C84.5201 10.1429 84.292 9.97958 84.0294 9.90963H84.0161Z" fill="#F9B471"/>
<path d="M71.3859 22.898L68.9798 21.507C70.5935 20.8426 71.6161 19.5535 71.6161 17.9631C71.6161 15.6286 69.4026 13.9342 66.328 13.9342C63.2535 13.9342 61.0377 15.6286 61.0377 17.9631C61.0377 19.5468 62.0604 20.8426 63.674 21.507L61.2701 22.898C61.143 22.9715 61.0315 23.0693 60.9421 23.1858C60.8527 23.3024 60.7871 23.4354 60.7491 23.5773C60.7111 23.7192 60.7013 23.8672 60.7205 24.0129C60.7396 24.1586 60.7873 24.2991 60.8606 24.4263C60.934 24.5536 61.0318 24.6651 61.1483 24.7546C61.2647 24.844 61.3977 24.9097 61.5395 24.9477C61.6813 24.9858 61.8293 24.9955 61.9748 24.9763C62.1204 24.9572 62.2608 24.9095 62.388 24.8361L66.328 22.5591L70.2659 24.8361C70.393 24.9097 70.5335 24.9575 70.6791 24.9768C70.8247 24.9961 70.9728 24.9865 71.1147 24.9485C71.2566 24.9106 71.3897 24.845 71.5063 24.7556C71.6229 24.6662 71.7208 24.5547 71.7943 24.4274C71.8678 24.3002 71.9156 24.1597 71.9349 24.014C71.9542 23.8682 71.9446 23.7201 71.9067 23.5781C71.8687 23.4361 71.8032 23.3029 71.7139 23.1862C71.6245 23.0695 71.5131 22.9716 71.3859 22.898ZM63.2734 17.9698C63.2734 16.9332 64.5572 16.1801 66.328 16.1801C68.0988 16.1801 69.3805 16.9332 69.3805 17.9698C69.3805 19.0064 68.0966 19.7617 66.328 19.7617C64.5594 19.7617 63.2712 19.0086 63.2712 17.9698H63.2734Z" fill="#F9B471"/>
<path d="M83.7462 22.898L81.3467 21.507C82.9604 20.8426 83.983 19.5535 83.983 17.9631C83.983 15.6286 81.7584 13.9342 78.6927 13.9342C75.627 13.9342 73.4024 15.6286 73.4024 17.9631C73.4024 19.5468 74.4273 20.8426 76.0409 21.507L73.6348 22.898C73.5077 22.9716 73.3962 23.0695 73.3069 23.1862C73.2175 23.3029 73.152 23.4361 73.1141 23.5781C73.0762 23.7201 73.0666 23.8682 73.0858 24.014C73.1051 24.1597 73.1529 24.3002 73.2264 24.4274C73.3 24.5547 73.3979 24.6662 73.5145 24.7556C73.6311 24.845 73.7642 24.9106 73.9061 24.9485C74.048 24.9865 74.196 24.9961 74.3416 24.9768C74.4873 24.9575 74.6277 24.9097 74.7549 24.8361L78.6905 22.5591L82.6306 24.8361C82.8856 24.9603 83.1783 24.9828 83.4494 24.8991C83.7204 24.8154 83.9495 24.6317 84.0902 24.3852C84.2309 24.1388 84.2728 23.8481 84.2073 23.5719C84.1417 23.2958 83.9738 23.0549 83.7373 22.898H83.7462ZM75.6358 17.9698C75.6358 16.9332 76.9197 16.1801 78.6883 16.1801C80.4569 16.1801 81.7407 16.9332 81.7407 17.9698C81.7407 19.0064 80.4569 19.7617 78.6883 19.7617C76.9197 19.7617 75.6358 19.0086 75.6358 17.9698Z" fill="#F9B471"/>
<path d="M76.6828 13.077C76.8339 13.0837 76.9849 13.0597 77.1265 13.0065C77.2681 12.9533 77.3975 12.8719 77.5068 12.7673C77.6161 12.6626 77.7031 12.5369 77.7625 12.3977C77.822 12.2585 77.8526 12.1087 77.8526 11.9573C77.8526 11.806 77.822 11.6562 77.7625 11.517C77.7031 11.3778 77.6161 11.2521 77.5068 11.1474C77.3975 11.0428 77.2681 10.9614 77.1265 10.9082C76.9849 10.8549 76.8339 10.831 76.6828 10.8377H67.7313C67.5802 10.831 67.4293 10.8549 67.2877 10.9082C67.1461 10.9614 67.0167 11.0428 66.9074 11.1474C66.7981 11.2521 66.7111 11.3778 66.6516 11.517C66.5922 11.6562 66.5615 11.806 66.5615 11.9573C66.5615 12.1087 66.5922 12.2585 66.6516 12.3977C66.7111 12.5369 66.7981 12.6626 66.9074 12.7673C67.0167 12.8719 67.1461 12.9533 67.2877 13.0065C67.4293 13.0597 67.5802 13.0837 67.7313 13.077H76.6828Z" fill="#F9B471"/>
<path d="M94.7961 1.35111C94.0148 3.89608 91.363 12.4258 90.0393 15.5489C90.0393 15.5489 93.2312 17.6442 93.2312 23.0619L95.0197 24.3599L96.8082 23.0619C96.8082 17.6442 100 15.5489 100 15.5489C98.672 12.4214 96.0158 3.89608 95.2411 1.35111C95.2266 1.30333 95.1972 1.26147 95.1571 1.23172C95.1171 1.20197 95.0685 1.1859 95.0186 1.1859C94.9687 1.1859 94.9202 1.20197 94.8801 1.23172C94.84 1.26147 94.8106 1.30333 94.7961 1.35111Z" fill="#D6D6D6"/>
<path d="M95.0196 15.0483C95.725 15.0483 96.2968 14.4761 96.2968 13.7703C96.2968 13.0644 95.725 12.4922 95.0196 12.4922C94.3143 12.4922 93.7424 13.0644 93.7424 13.7703C93.7424 14.4761 94.3143 15.0483 95.0196 15.0483Z" fill="#4D4C52"/>
<path d="M95.0195 13.7703V1.37991" stroke="#4D4C52" stroke-width="0.534274" stroke-linecap="round" stroke-linejoin="round"/>
<path d="M96.7705 22.1671H93.2687C92.4875 22.1671 91.8542 22.8008 91.8542 23.5824V23.5846C91.8542 24.3663 92.4875 25 93.2687 25H96.7705C97.5516 25 98.1849 24.3663 98.1849 23.5846V23.5824C98.1849 22.8008 97.5516 22.1671 96.7705 22.1671Z" fill="#51A8BC"/>
</g>
<defs>
<clipPath id="clip0_1821_1375">
<rect width="100" height="25" fill="white"/>
</clipPath>
</defs>
</svg>
